<?xml version="1.0" encoding="utf-8"?>
<svg version="1.1" xmlns:xlink="http://www.w3.org/1999/xlink" width="34px" height="32px" xmlns="http://www.w3.org/2000/svg">
  <g transform="matrix(1 0 0 1 -1151 -117 )">
    <path d="M 9.06666666666667 11.4285714285714  C 9.06666666666667 13.0833333333333  9.54479166666667 14.6071428571429  10.5010416666667 16  C 8.58854166666667 16.0595238095238  7.02430555555556 16.8214285714286  5.80833333333333 18.2857142857143  L 3.43541666666667 18.2857142857143  C 2.46736111111111 18.2857142857143  1.65277777777778 18.0446428571429  0.991666666666667 17.5625  C 0.330555555555555 17.0803571428571  0 16.375  0 15.4464285714286  C 0 11.2440476190476  0.731944444444444 9.14285714285714  2.19583333333333 9.14285714285714  C 2.26666666666667 9.14285714285714  2.5234375 9.26785714285714  2.96614583333333 9.51785714285714  C 3.40885416666667 9.76785714285714  3.984375 10.0208333333333  4.69270833333333 10.2767857142857  C 5.40104166666667 10.5327380952381  6.10347222222222 10.6607142857143  6.8 10.6607142857143  C 7.59097222222222 10.6607142857143  8.37604166666667 10.5238095238095  9.15520833333333 10.25  C 9.09618055555556 10.6904761904762  9.06666666666667 11.0833333333333  9.06666666666667 11.4285714285714  Z M 29.4046875 25.5267857142857  C 29.4460069444444 26.1279761904762  29.4666666666667 26.7440476190476  29.4666666666667 27.375  C 29.4666666666667 28.8035714285714  29.0357638888889 29.9315476190476  28.1739583333333 30.7589285714286  C 27.3121527777778 31.5863095238095  26.1670138888889 32  24.7385416666667 32  L 9.26145833333333 32  C 7.83298611111111 32  6.68784722222222 31.5863095238095  5.82604166666667 30.7589285714286  C 4.96423611111111 29.9315476190476  4.53333333333333 28.8035714285714  4.53333333333333 27.375  C 4.53333333333333 26.7440476190476  4.55399305555556 26.1279761904762  4.5953125 25.5267857142857  C 4.63663194444445 24.9255952380952  4.71927083333333 24.2767857142857  4.84322916666667 23.5803571428571  C 4.9671875 22.8839285714286  5.12361111111111 22.2380952380952  5.3125 21.6428571428571  C 5.50138888888889 21.047619047619  5.75520833333333 20.4672619047619  6.07395833333333 19.9017857142857  C 6.39270833333333 19.3363095238095  6.75868055555556 18.8541666666667  7.171875 18.4553571428571  C 7.58506944444444 18.0565476190476  8.08975694444445 17.7380952380952  8.6859375 17.5  C 9.28211805555556 17.2619047619048  9.94027777777778 17.1428571428571  10.6604166666667 17.1428571428571  C 10.7784722222222 17.1428571428571  11.0322916666667 17.2708333333333  11.421875 17.5267857142857  C 11.8114583333333 17.7827380952381  12.2423611111111 18.0684523809524  12.7145833333333 18.3839285714286  C 13.1868055555556 18.6994047619048  13.8184027777778 18.985119047619  14.609375 19.2410714285714  C 15.4003472222222 19.4970238095238  16.1972222222222 19.625  17 19.625  C 17.8027777777778 19.625  18.5996527777778 19.4970238095238  19.390625 19.2410714285714  C 20.1815972222222 18.985119047619  20.8131944444444 18.6994047619048  21.2854166666667 18.3839285714286  C 21.7576388888889 18.0684523809524  22.1885416666667 17.7827380952381  22.578125 17.5267857142857  C 22.9677083333333 17.2708333333333  23.2215277777778 17.1428571428571  23.3395833333333 17.1428571428571  C 24.0597222222222 17.1428571428571  24.7178819444445 17.2619047619048  25.3140625 17.5  C 25.9102430555556 17.7380952380952  26.4149305555556 18.0565476190476  26.828125 18.4553571428571  C 27.2413194444445 18.8541666666667  27.6072916666667 19.3363095238095  27.9260416666667 19.9017857142857  C 28.2447916666667 20.4672619047619  28.4986111111111 21.047619047619  28.6875 21.6428571428571  C 28.8763888888889 22.2380952380952  29.0328125 22.8839285714286  29.1567708333333 23.5803571428571  C 29.2807291666667 24.2767857142857  29.3633680555556 24.9255952380952  29.4046875 25.5267857142857  Z M 10.0052083333333 1.33928571428572  C 10.890625 2.23214285714286  11.3333333333333 3.30952380952381  11.3333333333333 4.57142857142857  C 11.3333333333333 5.83333333333333  10.890625 6.91071428571428  10.0052083333333 7.80357142857143  C 9.11979166666667 8.69642857142857  8.05138888888889 9.14285714285714  6.8 9.14285714285714  C 5.54861111111111 9.14285714285714  4.48020833333333 8.69642857142857  3.59479166666667 7.80357142857143  C 2.709375 6.91071428571428  2.26666666666667 5.83333333333333  2.26666666666667 4.57142857142857  C 2.26666666666667 3.30952380952381  2.709375 2.23214285714286  3.59479166666667 1.33928571428572  C 4.48020833333333 0.446428571428573  5.54861111111111 0  6.8 0  C 8.05138888888889 0  9.11979166666667 0.446428571428573  10.0052083333333 1.33928571428572  Z M 21.8078125 6.58035714285714  C 23.1359375 7.91964285714286  23.8 9.53571428571428  23.8 11.4285714285714  C 23.8 13.3214285714286  23.1359375 14.9375  21.8078125 16.2767857142857  C 20.4796875 17.6160714285714  18.8770833333333 18.2857142857143  17 18.2857142857143  C 15.1229166666667 18.2857142857143  13.5203125 17.6160714285714  12.1921875 16.2767857142857  C 10.8640625 14.9375  10.2 13.3214285714286  10.2 11.4285714285714  C 10.2 9.53571428571428  10.8640625 7.91964285714286  12.1921875 6.58035714285714  C 13.5203125 5.24107142857143  15.1229166666667 4.57142857142857  17 4.57142857142857  C 18.8770833333333 4.57142857142857  20.4796875 5.24107142857143  21.8078125 6.58035714285714  Z M 31.8041666666667 9.14285714285714  C 33.2680555555556 9.14285714285714  34 11.2440476190476  34 15.4464285714286  C 34 16.375  33.6694444444444 17.0803571428571  33.0083333333333 17.5625  C 32.3472222222222 18.0446428571429  31.5326388888889 18.2857142857143  30.5645833333333 18.2857142857143  L 28.1916666666667 18.2857142857143  C 26.9756944444445 16.8214285714286  25.4114583333333 16.0595238095238  23.4989583333333 16  C 24.4552083333333 14.6071428571429  24.9333333333333 13.0833333333333  24.9333333333333 11.4285714285714  C 24.9333333333333 11.0833333333333  24.9038194444444 10.6904761904762  24.8447916666667 10.25  C 25.6239583333333 10.5238095238095  26.4090277777778 10.6607142857143  27.2 10.6607142857143  C 27.8965277777778 10.6607142857143  28.5989583333333 10.5327380952381  29.3072916666667 10.2767857142857  C 30.015625 10.0208333333333  30.5911458333333 9.76785714285714  31.0338541666667 9.51785714285714  C 31.4765625 9.26785714285714  31.7333333333333 9.14285714285714  31.8041666666667 9.14285714285714  Z M 30.4052083333333 1.33928571428572  C 31.290625 2.23214285714286  31.7333333333333 3.30952380952381  31.7333333333333 4.57142857142857  C 31.7333333333333 5.83333333333333  31.290625 6.91071428571428  30.4052083333333 7.80357142857143  C 29.5197916666667 8.69642857142857  28.4513888888889 9.14285714285714  27.2 9.14285714285714  C 25.9486111111111 9.14285714285714  24.8802083333333 8.69642857142857  23.9947916666667 7.80357142857143  C 23.109375 6.91071428571428  22.6666666666667 5.83333333333333  22.6666666666667 4.57142857142857  C 22.6666666666667 3.30952380952381  23.109375 2.23214285714286  23.9947916666667 1.33928571428572  C 24.8802083333333 0.446428571428573  25.9486111111111 0  27.2 0  C 28.4513888888889 0  29.5197916666667 0.446428571428573  30.4052083333333 1.33928571428572  Z " fill-rule="nonzero" fill="#d7d7d7" stroke="none" transform="matrix(1 0 0 1 1151 117 )" />
  </g>
</svg>