<?xml version="1.0" encoding="utf-8"?>
<svg version="1.1" xmlns:xlink="http://www.w3.org/1999/xlink" width="304px" height="174px" xmlns="http://www.w3.org/2000/svg">
  <defs>
    <filter x="570px" y="176px" width="304px" height="174px" filterUnits="userSpaceOnUse" id="filter104">
      <feOffset dx="2" dy="2" in="SourceAlpha" result="shadowOffsetInner" />
      <feGaussianBlur stdDeviation="1" in="shadowOffsetInner" result="shadowGaussian" />
      <feComposite in2="shadowGaussian" operator="atop" in="SourceAlpha" result="shadowComposite" />
      <feColorMatrix type="matrix" values="0 0 0 0 0  0 0 0 0 0  0 0 0 0 0  0 0 0 0.349019607843137 0  " in="shadowComposite" />
    </filter>
    <g id="widget105">
      <path d="M 571 181  A 4 4 0 0 1 575 177 L 865 177  A 4 4 0 0 1 869 181 L 869 341  A 4 4 0 0 1 865 345 L 575 345  A 4 4 0 0 1 571 341 L 571 181  Z " fill-rule="nonzero" fill="#ffffff" stroke="none" />
      <path d="M 570.5 181  A 4.5 4.5 0 0 1 575 176.5 L 865 176.5  A 4.5 4.5 0 0 1 869.5 181 L 869.5 341  A 4.5 4.5 0 0 1 865 345.5 L 575 345.5  A 4.5 4.5 0 0 1 570.5 341 L 570.5 181  Z " stroke-width="1" stroke-dasharray="3,1" stroke="#797979" fill="none" stroke-dashoffset="0.5" />
    </g>
  </defs>
  <g transform="matrix(1 0 0 1 -570 -176 )">
    <use xlink:href="#widget105" filter="url(#filter104)" />
    <use xlink:href="#widget105" />
  </g>
</svg>