<?xml version="1.0" encoding="utf-8"?>
<svg version="1.1" xmlns:xlink="http://www.w3.org/1999/xlink" width="300px" height="170px" xmlns="http://www.w3.org/2000/svg">
  <g transform="matrix(1 0 0 1 -697 -178 )">
    <path d="M 698 183  A 4 4 0 0 1 702 179 L 992 179  A 4 4 0 0 1 996 183 L 996 343  A 4 4 0 0 1 992 347 L 702 347  A 4 4 0 0 1 698 343 L 698 183  Z " fill-rule="nonzero" fill="#ffffff" stroke="none" />
    <path d="M 697.5 183  A 4.5 4.5 0 0 1 702 178.5 L 992 178.5  A 4.5 4.5 0 0 1 996.5 183 L 996.5 343  A 4.5 4.5 0 0 1 992 347.5 L 702 347.5  A 4.5 4.5 0 0 1 697.5 343 L 697.5 183  Z " stroke-width="1" stroke-dasharray="3,1" stroke="#797979" fill="none" stroke-dashoffset="0.5" />
  </g>
</svg>