<?xml version="1.0" encoding="utf-8"?>
<svg version="1.1" xmlns:xlink="http://www.w3.org/1999/xlink" width="304px" height="174px" xmlns="http://www.w3.org/2000/svg">
  <defs>
    <filter x="697px" y="178px" width="304px" height="174px" filterUnits="userSpaceOnUse" id="filter60">
      <feOffset dx="2" dy="2" in="SourceAlpha" result="shadowOffsetInner" />
      <feGaussianBlur stdDeviation="1" in="shadowOffsetInner" result="shadowGaussian" />
      <feComposite in2="shadowGaussian" operator="atop" in="SourceAlpha" result="shadowComposite" />
      <feColorMatrix type="matrix" values="0 0 0 0 0  0 0 0 0 0  0 0 0 0 0  0 0 0 0.349019607843137 0  " in="shadowComposite" />
    </filter>
    <g id="widget61">
      <path d="M 698 183  A 4 4 0 0 1 702 179 L 992 179  A 4 4 0 0 1 996 183 L 996 343  A 4 4 0 0 1 992 347 L 702 347  A 4 4 0 0 1 698 343 L 698 183  Z " fill-rule="nonzero" fill="#ffffff" stroke="none" />
      <path d="M 697.5 183  A 4.5 4.5 0 0 1 702 178.5 L 992 178.5  A 4.5 4.5 0 0 1 996.5 183 L 996.5 343  A 4.5 4.5 0 0 1 992 347.5 L 702 347.5  A 4.5 4.5 0 0 1 697.5 343 L 697.5 183  Z " stroke-width="1" stroke-dasharray="3,1" stroke="#797979" fill="none" stroke-dashoffset="0.5" />
    </g>
  </defs>
  <g transform="matrix(1 0 0 1 -697 -178 )">
    <use xlink:href="#widget61" filter="url(#filter60)" />
    <use xlink:href="#widget61" />
  </g>
</svg>