<?xml version="1.0" encoding="utf-8"?>
<svg version="1.1" xmlns:xlink="http://www.w3.org/1999/xlink" width="32px" height="25px" xmlns="http://www.w3.org/2000/svg">
  <g transform="matrix(1 0 0 1 -1169 -114 )">
    <path d="M 5.85714285714286 19.1761363636364  C 6.52380952380952 19.8390151515151  6.85714285714286 20.6439393939394  6.85714285714286 21.5909090909091  C 6.85714285714286 22.5378787878788  6.52380952380952 23.342803030303  5.85714285714286 24.0056818181818  C 5.19047619047619 24.6685606060606  4.38095238095238 25  3.42857142857143 25  C 2.47619047619048 25  1.66666666666667 24.6685606060606  1 24.0056818181818  C 0.333333333333333 23.342803030303  0 22.5378787878788  0 21.5909090909091  C 0 20.6439393939394  0.333333333333333 19.8390151515151  1 19.1761363636364  C 1.66666666666667 18.5132575757576  2.47619047619048 18.1818181818182  3.42857142857143 18.1818181818182  C 4.38095238095238 18.1818181818182  5.19047619047619 18.5132575757576  5.85714285714286 19.1761363636364  Z M 5.85714285714286 10.0852272727273  C 6.52380952380952 10.7481060606061  6.85714285714286 11.5530303030303  6.85714285714286 12.5  C 6.85714285714286 13.4469696969697  6.52380952380952 14.2518939393939  5.85714285714286 14.9147727272727  C 5.19047619047619 15.5776515151515  4.38095238095238 15.9090909090909  3.42857142857143 15.9090909090909  C 2.47619047619048 15.9090909090909  1.66666666666667 15.5776515151515  1 14.9147727272727  C 0.333333333333333 14.2518939393939  0 13.4469696969697  0 12.5  C 0 11.5530303030303  0.333333333333333 10.7481060606061  1 10.0852272727273  C 1.66666666666667 9.42234848484848  2.47619047619048 9.09090909090909  3.42857142857143 9.09090909090909  C 4.38095238095238 9.09090909090909  5.19047619047619 9.42234848484848  5.85714285714286 10.0852272727273  Z M 31.8303571428571 19.4868607954545  C 31.9434523809524 19.5993134469697  32 19.7324810606061  32 19.8863636363636  L 32 23.2954545454545  C 32 23.4493371212121  31.9434523809524 23.5825047348485  31.8303571428571 23.6949573863636  C 31.7172619047619 23.8074100378788  31.5833333333333 23.8636363636364  31.4285714285714 23.8636363636364  L 9.71428571428571 23.8636363636364  C 9.55952380952381 23.8636363636364  9.42559523809524 23.8074100378788  9.3125 23.6949573863636  C 9.19940476190476 23.5825047348485  9.14285714285714 23.4493371212121  9.14285714285714 23.2954545454545  L 9.14285714285714 19.8863636363636  C 9.14285714285714 19.7324810606061  9.19940476190476 19.5993134469697  9.3125 19.4868607954545  C 9.42559523809524 19.3744081439394  9.55952380952381 19.3181818181818  9.71428571428571 19  L 31.4285714285714 19  C 31.5833333333333 19.3181818181818  31.7172619047619 19.3744081439394  31.8303571428571 19.4868607954545  Z M 5.85714285714286 0.994318181818182  C 6.52380952380952 1.65719696969697  6.85714285714286 2.46212121212121  6.85714285714286 3.40909090909091  C 6.85714285714286 4.3560606060606  6.52380952380952 5.16098484848485  5.85714285714286 5.82386363636363  C 5.19047619047619 6.48674242424242  4.38095238095238 6.81818181818182  3.42857142857143 6.81818181818182  C 2.47619047619048 6.81818181818182  1.66666666666667 6.48674242424242  1 5.82386363636363  C 0.333333333333333 5.16098484848485  0 4.3560606060606  0 3.40909090909091  C 0 2.46212121212121  0.333333333333333 1.65719696969697  1 0.994318181818182  C 1.66666666666667 0.331439393939392  2.47619047619048 0  3.42857142857143 0  C 4.38095238095238 0  5.19047619047619 0.331439393939392  5.85714285714286 0.994318181818182  Z M 31.8303571428571 10.3959517045455  C 31.9434523809524 10.5084043560606  32 10.641571969697  32 10.7954545454545  L 32 14.2045454545455  C 32 14.358428030303  31.9434523809524 14.4915956439394  31.8303571428571 14.6040482954545  C 31.7172619047619 14.7165009469697  31.5833333333333 14.7727272727273  31.4285714285714 14.7727272727273  L 9.71428571428571 14.7727272727273  C 9.55952380952381 14.7727272727273  9.42559523809524 14.7165009469697  9.3125 14.6040482954545  C 9.19940476190476 14.4915956439394  9.14285714285714 14.358428030303  9.14285714285714 14.2045454545455  L 9.14285714285714 10.7954545454545  C 9.14285714285714 10.641571969697  9.19940476190476 10.5084043560606  9.3125 10.3959517045455  C 9.42559523809524 10.2834990530303  9.55952380952381 10.2272727272727  9.71428571428571 10.2272727272727  L 31.4285714285714 10.2272727272727  C 31.5833333333333 10.2272727272727  31.7172619047619 10.2834990530303  31.8303571428571 10.3959517045455  Z M 31.8303571428571 1.30504261363636  C 31.9434523809524 1.41749526515151  32 1.55066287878788  32 1.70454545454546  L 32 5.11363636363637  C 32 5.26751893939394  31.9434523809524 5.4006865530303  31.8303571428571 5.51313920454546  C 31.7172619047619 5.6255918560606  31.5833333333333 5.68181818181818  31.4285714285714 6  L 9.71428571428571 6  C 9.55952380952381 5.68181818181818  9.42559523809524 5.6255918560606  9.3125 5.51313920454546  C 9.19940476190476 5.4006865530303  9.14285714285714 5.26751893939394  9.14285714285714 5.11363636363637  L 9.14285714285714 1.70454545454546  C 9.14285714285714 1.55066287878788  9.19940476190476 1.41749526515151  9.3125 1.30504261363636  C 9.42559523809524 1.19258996212121  9.55952380952381 1.13636363636364  9.71428571428571 1.13636363636364  L 31.4285714285714 1.13636363636364  C 31.5833333333333 1.13636363636364  31.7172619047619 1.19258996212121  31.8303571428571 1.30504261363636  Z " fill-rule="nonzero" fill="#d7d7d7" stroke="none" transform="matrix(1 0 0 1 1169 114 )" />
  </g>
</svg>