<?xml version="1.0" encoding="utf-8"?>
<svg version="1.1" xmlns:xlink="http://www.w3.org/1999/xlink" width="218px" height="218px" xmlns="http://www.w3.org/2000/svg">
  <g transform="matrix(1 0 0 1 -207 -233 )">
    <path d="M 316.500192657761 233.501128625286  C 376.192986055693 233.770555105967  424.5 282.243923727765  424.5 342  C 424.5 401.922895356641  375.922895356641 450.5  316 450.5  C 307.950137996087 450.5  299.925797960169 449.604152880609  292.075088048753 447.829337097088  L 316.487179540617 342.112499312019  A 0.5 0.5 0 0 0 316.5 342 L 316.500192171971 233.501128623093  Z " fill-rule="nonzero" fill="#1890ff" stroke="none" />
    <path d="M 316.500192657761 233.501128625286  C 376.192986055693 233.770555105967  424.5 282.243923727765  424.5 342  C 424.5 401.922895356641  375.922895356641 450.5  316 450.5  C 307.950137996087 450.5  299.925797960169 449.604152880609  292.075088048753 447.829337097088  L 316.487179540617 342.112499312019  A 0.5 0.5 0 0 0 316.5 342 L 316.500192171971 233.501128623093  Z " stroke-width="1" stroke="#ffffff" fill="none" />
  </g>
</svg>