<?xml version="1.0" encoding="utf-8"?>
<svg version="1.1" xmlns:xlink="http://www.w3.org/1999/xlink" width="218px" height="218px" xmlns="http://www.w3.org/2000/svg">
  <g transform="matrix(1 0 0 1 -206 -246 )">
    <path d="M 315.500192657761 246.501128625286  C 375.192986055693 246.770555105967  423.5 295.243923727765  423.5 355  C 423.5 414.922895356641  374.922895356641 463.5  315 463.5  C 306.950137996087 463.5  298.925797960169 462.604152880609  291.075088048753 460.829337097088  L 315.487179540617 355.112499312019  A 0.5 0.5 0 0 0 315.5 355 L 315.500192171971 246.501128623093  Z " fill-rule="nonzero" fill="#1890ff" stroke="none" />
    <path d="M 315.500192657761 246.501128625286  C 375.192986055693 246.770555105967  423.5 295.243923727765  423.5 355  C 423.5 414.922895356641  374.922895356641 463.5  315 463.5  C 306.950137996087 463.5  298.925797960169 462.604152880609  291.075088048753 460.829337097088  L 315.487179540617 355.112499312019  A 0.5 0.5 0 0 0 315.5 355 L 315.500192171971 246.501128623093  Z " stroke-width="1" stroke="#ffffff" fill="none" />
  </g>
</svg>