<?xml version="1.0" encoding="utf-8"?>
<svg version="1.1" xmlns:xlink="http://www.w3.org/1999/xlink" width="1072px" height="32px" xmlns="http://www.w3.org/2000/svg">
  <g transform="matrix(1 0 0 1 -184 -167 )">
    <path d="M 185 171  A 3 3 0 0 1 188 168 L 1252 168  A 3 3 0 0 1 1255 171 L 1255 195  A 3 3 0 0 1 1252 198 L 188 198  A 3 3 0 0 1 185 195 L 185 171  Z " fill-rule="nonzero" fill="#ffffff" stroke="none" />
    <path d="M 184.5 171  A 3.5 3.5 0 0 1 188 167.5 L 1252 167.5  A 3.5 3.5 0 0 1 1255.5 171 L 1255.5 195  A 3.5 3.5 0 0 1 1252 198.5 L 188 198.5  A 3.5 3.5 0 0 1 184.5 195 L 184.5 171  Z " stroke-width="1" stroke-dasharray="9,4" stroke="#e8e8e8" fill="none" stroke-dashoffset="0.5" />
  </g>
</svg>