<?xml version="1.0" encoding="utf-8"?>
<svg version="1.1" xmlns:xlink="http://www.w3.org/1999/xlink" width="32px" height="25px" xmlns="http://www.w3.org/2000/svg">
  <g transform="matrix(1 0 0 1 -1216 -114 )">
    <path d="M 8.64285714285714 18.6789772727273  C 8.97619047619048 19.0104166666667  9.14285714285714 19.4128787878788  9.14285714285714 19.8863636363636  L 9.14285714285714 23.2954545454545  C 9.14285714285714 23.7689393939394  8.97619047619048 24.1714015151515  8.64285714285714 24.5028409090909  C 8.30952380952381 24.8342803030303  7.90476190476191 25  7.42857142857143 25  L 1.71428571428571 25  C 1.23809523809524 25  0.833333333333333 24.8342803030303  0.5 24.5028409090909  C 0.166666666666667 24.1714015151515  0 23.7689393939394  0 23.2954545454545  L 0 19.8863636363636  C 0 19.4128787878788  0.166666666666667 19.0104166666667  0.5 18.6789772727273  C 0.833333333333333 18.3475378787879  1.23809523809524 18.1818181818182  1.71428571428571 18.1818181818182  L 7.42857142857143 18.1818181818182  C 7.90476190476191 18.1818181818182  8.30952380952381 18.3475378787879  8.64285714285714 18.6789772727273  Z M 8.64285714285714 9.58806818181818  C 8.97619047619048 9.91950757575757  9.14285714285714 10.3219696969697  9.14285714285714 10.7954545454545  L 9.14285714285714 14.2045454545455  C 9.14285714285714 14.6780303030303  8.97619047619048 15.0804924242424  8.64285714285714 15.4119318181818  C 8.30952380952381 15.7433712121212  7.90476190476191 15.9090909090909  7.42857142857143 15.9090909090909  L 1.71428571428571 15.9090909090909  C 1.23809523809524 15.9090909090909  0.833333333333333 15.7433712121212  0.5 15.4119318181818  C 0.166666666666667 15.0804924242424  0 14.6780303030303  0 14.2045454545455  L 0 10.7954545454545  C 0 10.3219696969697  0.166666666666667 9.91950757575757  0.5 9.58806818181818  C 0.833333333333333 9.25662878787879  1.23809523809524 9.09090909090909  1.71428571428571 9.09090909090909  L 7.42857142857143 9.09090909090909  C 7.90476190476191 9.09090909090909  8.30952380952381 9.25662878787879  8.64285714285714 9.58806818181818  Z M 20.0714285714286 18.6789772727273  C 20.4047619047619 19.0104166666667  20.5714285714286 19.4128787878788  20.5714285714286 19.8863636363636  L 20.5714285714286 23.2954545454545  C 20.5714285714286 23.7689393939394  20.4047619047619 24.1714015151515  20.0714285714286 24.5028409090909  C 19.7380952380952 24.8342803030303  19.3333333333333 25  18.8571428571429 25  L 13.1428571428571 25  C 12.6666666666667 25  12.2619047619048 24.8342803030303  11.9285714285714 24.5028409090909  C 11.5952380952381 24.1714015151515  11.4285714285714 23.7689393939394  11.4285714285714 23.2954545454545  L 11.4285714285714 19.8863636363636  C 11.4285714285714 19.4128787878788  11.5952380952381 19.0104166666667  11.9285714285714 18.6789772727273  C 12.2619047619048 18.3475378787879  12.6666666666667 18.1818181818182  13.1428571428571 18.1818181818182  L 18.8571428571429 18.1818181818182  C 19.3333333333333 18.1818181818182  19.7380952380952 18.3475378787879  20.0714285714286 18.6789772727273  Z M 8.64285714285714 0.497159090909091  C 8.97619047619048 0.828598484848483  9.14285714285714 1.23106060606061  9.14285714285714 1.70454545454546  L 9.14285714285714 5.11363636363637  C 9.14285714285714 5.58712121212121  8.97619047619048 5.98958333333333  8.64285714285714 6.32102272727273  C 8.30952380952381 6.65246212121212  7.90476190476191 6.81818181818182  7.42857142857143 6.81818181818182  L 1.71428571428571 6.81818181818182  C 1.23809523809524 6.81818181818182  0.833333333333333 6.65246212121212  0.5 6.32102272727273  C 0.166666666666667 5.98958333333333  0 5.58712121212121  0 5.11363636363637  L 0 1.70454545454546  C 0 1.23106060606061  0.166666666666667 0.828598484848483  0.5 0.497159090909091  C 0.833333333333333 0.165719696969696  1.23809523809524 0  1.71428571428571 0  L 7.42857142857143 0  C 7.90476190476191 0  8.30952380952381 0.165719696969696  8.64285714285714 0.497159090909091  Z M 20.0714285714286 9.58806818181818  C 20.4047619047619 9.91950757575757  20.5714285714286 10.3219696969697  20.5714285714286 10.7954545454545  L 20.5714285714286 14.2045454545455  C 20.5714285714286 14.6780303030303  20.4047619047619 15.0804924242424  20.0714285714286 15.4119318181818  C 19.7380952380952 15.7433712121212  19.3333333333333 15.9090909090909  18.8571428571429 15.9090909090909  L 13.1428571428571 15.9090909090909  C 12.6666666666667 15.9090909090909  12.2619047619048 15.7433712121212  11.9285714285714 15.4119318181818  C 11.5952380952381 15.0804924242424  11.4285714285714 14.6780303030303  11.4285714285714 14.2045454545455  L 11.4285714285714 10.7954545454545  C 11.4285714285714 10.3219696969697  11.5952380952381 9.91950757575757  11.9285714285714 9.58806818181818  C 12.2619047619048 9.25662878787879  12.6666666666667 9.09090909090909  13.1428571428571 9.09090909090909  L 18.8571428571429 9.09090909090909  C 19.3333333333333 9.09090909090909  19.7380952380952 9.25662878787879  20.0714285714286 9.58806818181818  Z M 31.5 18.6789772727273  C 31.8333333333333 19.0104166666667  32 19.4128787878788  32 19.8863636363636  L 32 23.2954545454545  C 32 23.7689393939394  31.8333333333333 24.1714015151515  31.5 24.5028409090909  C 31.1666666666667 24.8342803030303  30.7619047619048 25  30.2857142857143 25  L 24.5714285714286 25  C 24.0952380952381 25  23.6904761904762 24.8342803030303  23.3571428571429 24.5028409090909  C 23.0238095238095 24.1714015151515  22.8571428571429 23.7689393939394  22.8571428571429 23.2954545454545  L 22.8571428571429 19.8863636363636  C 22.8571428571429 19.4128787878788  23.0238095238095 19.0104166666667  23.3571428571429 18.6789772727273  C 23.6904761904762 18.3475378787879  24.0952380952381 18.1818181818182  24.5714285714286 18.1818181818182  L 30.2857142857143 18.1818181818182  C 30.7619047619048 18.1818181818182  31.1666666666667 18.3475378787879  31.5 18.6789772727273  Z M 20.0714285714286 0.497159090909091  C 20.4047619047619 0.828598484848483  20.5714285714286 1.23106060606061  20.5714285714286 1.70454545454546  L 20.5714285714286 5.11363636363637  C 20.5714285714286 5.58712121212121  20.4047619047619 5.98958333333333  20.0714285714286 6.32102272727273  C 19.7380952380952 6.65246212121212  19.3333333333333 6.81818181818182  18.8571428571429 6.81818181818182  L 13.1428571428571 6.81818181818182  C 12.6666666666667 6.81818181818182  12.2619047619048 6.65246212121212  11.9285714285714 6.32102272727273  C 11.5952380952381 5.98958333333333  11.4285714285714 5.58712121212121  11.4285714285714 5.11363636363637  L 11.4285714285714 1.70454545454546  C 11.4285714285714 1.23106060606061  11.5952380952381 0.828598484848483  11.9285714285714 0.497159090909091  C 12.2619047619048 0.165719696969696  12.6666666666667 0  13.1428571428571 0  L 18.8571428571429 0  C 19.3333333333333 0  19.7380952380952 0.165719696969696  20.0714285714286 0.497159090909091  Z M 31.5 9.58806818181818  C 31.8333333333333 9.91950757575757  32 10.3219696969697  32 10.7954545454545  L 32 14.2045454545455  C 32 14.6780303030303  31.8333333333333 15.0804924242424  31.5 15.4119318181818  C 31.1666666666667 15.7433712121212  30.7619047619048 15.9090909090909  30.2857142857143 15.9090909090909  L 24.5714285714286 15.9090909090909  C 24.0952380952381 15.9090909090909  23.6904761904762 15.7433712121212  23.3571428571429 15.4119318181818  C 23.0238095238095 15.0804924242424  22.8571428571429 14.6780303030303  22.8571428571429 14.2045454545455  L 22.8571428571429 10.7954545454545  C 22.8571428571429 10.3219696969697  23.0238095238095 9.91950757575757  23.3571428571429 9.58806818181818  C 23.6904761904762 9.25662878787879  24.0952380952381 9.09090909090909  24.5714285714286 9.09090909090909  L 30.2857142857143 9.09090909090909  C 30.7619047619048 9.09090909090909  31.1666666666667 9.25662878787879  31.5 9.58806818181818  Z M 31.5 0.497159090909091  C 31.8333333333333 0.828598484848483  32 1.23106060606061  32 1.70454545454546  L 32 5.11363636363637  C 32 5.58712121212121  31.8333333333333 5.98958333333333  31.5 6.32102272727273  C 31.1666666666667 6.65246212121212  30.7619047619048 6.81818181818182  30.2857142857143 6.81818181818182  L 24.5714285714286 6.81818181818182  C 24.0952380952381 6.81818181818182  23.6904761904762 6.65246212121212  23.3571428571429 6.32102272727273  C 23.0238095238095 5.98958333333333  22.8571428571429 5.58712121212121  22.8571428571429 5.11363636363637  L 22.8571428571429 1.70454545454546  C 22.8571428571429 1.23106060606061  23.0238095238095 0.828598484848483  23.3571428571429 0.497159090909091  C 23.6904761904762 0.165719696969696  24.0952380952381 0  24.5714285714286 0  L 30.2857142857143 0  C 30.7619047619048 0  31.1666666666667 0.165719696969696  31.5 0.497159090909091  Z " fill-rule="nonzero" fill="#d7d7d7" stroke="none" transform="matrix(1 0 0 1 1216 114 )" />
  </g>
</svg>