<?xml version="1.0" encoding="utf-8"?>
<svg version="1.1" xmlns:xlink="http://www.w3.org/1999/xlink" width="1072px" height="32px" xmlns="http://www.w3.org/2000/svg">
  <g transform="matrix(1 0 0 1 -311 -169 )">
    <path d="M 312 173  A 3 3 0 0 1 315 170 L 1379 170  A 3 3 0 0 1 1382 173 L 1382 197  A 3 3 0 0 1 1379 200 L 315 200  A 3 3 0 0 1 312 197 L 312 173  Z " fill-rule="nonzero" fill="#ffffff" stroke="none" />
    <path d="M 311.5 173  A 3.5 3.5 0 0 1 315 169.5 L 1379 169.5  A 3.5 3.5 0 0 1 1382.5 173 L 1382.5 197  A 3.5 3.5 0 0 1 1379 200.5 L 315 200.5  A 3.5 3.5 0 0 1 311.5 197 L 311.5 173  Z " stroke-width="1" stroke-dasharray="9,4" stroke="#e8e8e8" fill="none" stroke-dashoffset="0.5" />
  </g>
</svg>