<?xml version="1.0" encoding="utf-8"?>
<svg version="1.1" xmlns:xlink="http://www.w3.org/1999/xlink" width="30px" height="35px" xmlns="http://www.w3.org/2000/svg">
  <g transform="matrix(1 0 0 1 -1206 -114 )">
    <path d="M 29.80078125 25.3043619791667  C 29.93359375 26.4512803819444  30 27.6703559027778  30 28.9615885416667  C 30 30.6174045138889  29.51171875 32.0377604166667  28.53515625 33.22265625  C 27.55859375 34.4075520833333  26.3828125 35  25.0078125 35  L 4.9921875 35  C 3.6171875 35  2.44140625 34.4075520833333  1.46484375 33.22265625  C 0.48828125 32.0377604166667  0 30.6174045138889  0 28.9615885416667  C 0 27.6703559027778  0.0664062500000002 26.4512803819444  0.19921875 25.3043619791667  C 0.33203125 24.1574435763889  0.578125 23.0029296875  0.9375 21.8408203125  C 1.296875 20.6787109375  1.75390625 19.6837022569444  2.30859375 18.8557942708333  C 2.86328125 18.0278862847222  3.59765625 17.3518880208333  4.51171875 16.8277994791667  C 5.42578125 16.3037109375  6.4765625 16.0416666666667  7.6640625 16.0416666666667  C 9.7109375 17.9861111111111  12.15625 18.9583333333333  15 18.9583333333333  C 17.84375 18.9583333333333  20.2890625 17.9861111111111  22.3359375 16.0416666666667  C 23.5234375 16.0416666666667  24.57421875 16.3037109375  25.48828125 16.8277994791667  C 26.40234375 17.3518880208333  27.13671875 18.0278862847222  27.69140625 18.8557942708333  C 28.24609375 19.6837022569444  28.703125 20.6787109375  29.0625 21.8408203125  C 29.421875 23.0029296875  29.66796875 24.1574435763889  29.80078125 25.3043619791667  Z M 21.36328125 2.5634765625  C 23.12109375 4.2724609375  24 6.33463541666667  24 8.75  C 24 11.1653645833333  23.12109375 13.2275390625  21.36328125 14.9365234375  C 19.60546875 16.6455078125  17.484375 17.5  15 17.5  C 12.515625 17.5  10.39453125 16.6455078125  8.63671875 14.9365234375  C 6.87890625 13.2275390625  6 11.1653645833333  6 8.75  C 6 6.33463541666667  6.87890625 4.2724609375  8.63671875 2.5634765625  C 10.39453125 0.8544921875  12.515625 0  15 0  C 17.484375 0  19.60546875 0.8544921875  21.36328125 2.5634765625  Z " fill-rule="nonzero" fill="#0096fa" stroke="none" transform="matrix(1 0 0 1 1206 114 )" />
  </g>
</svg>