<?xml version="1.0" encoding="utf-8"?>
<svg version="1.1" xmlns:xlink="http://www.w3.org/1999/xlink" width="300px" height="170px" xmlns="http://www.w3.org/2000/svg">
  <g transform="matrix(1 0 0 1 -570 -176 )">
    <path d="M 571 181  A 4 4 0 0 1 575 177 L 865 177  A 4 4 0 0 1 869 181 L 869 341  A 4 4 0 0 1 865 345 L 575 345  A 4 4 0 0 1 571 341 L 571 181  Z " fill-rule="nonzero" fill="#ffffff" stroke="none" />
    <path d="M 570.5 181  A 4.5 4.5 0 0 1 575 176.5 L 865 176.5  A 4.5 4.5 0 0 1 869.5 181 L 869.5 341  A 4.5 4.5 0 0 1 865 345.5 L 575 345.5  A 4.5 4.5 0 0 1 570.5 341 L 570.5 181  Z " stroke-width="1" stroke-dasharray="3,1" stroke="#797979" fill="none" stroke-dashoffset="0.5" />
  </g>
</svg>